<svg width="512" height="512" viewBox="0 0 512 512" fill="none" xmlns="http://www.w3.org/2000/svg">
<g clip-path="url(#clip0_1_524)">
<path d="M230.4 469.333V477.867C230.4 492.005 218.938 503.467 204.8 503.467H34.1332C19.9947 503.467 8.5332 492.005 8.5332 477.867V469.333H230.4Z" fill="#F4FBF3"/>
<path d="M204.8 469.333V477.867C204.8 492.005 193.339 503.467 179.2 503.467H204.8C218.939 503.467 230.4 492.005 230.4 477.867V469.333H204.8Z" fill="#F4FBF3"/>
<path d="M503.467 469.333V477.867C503.467 492.005 492.005 503.467 477.867 503.467H307.2C293.062 503.467 281.6 492.005 281.6 477.867V469.333H503.467Z" fill="#F4FBF3"/>
<path d="M477.867 469.333V477.867C477.867 492.005 466.405 503.467 452.267 503.467H477.867C492.005 503.467 503.467 492.005 503.467 477.867V469.333H477.867Z" fill="#F4FBF3"/>
<path d="M281.6 469.333V477.867C281.6 492.005 270.138 503.467 256 503.467C241.861 503.467 230.4 492.005 230.4 477.867V469.333H281.6Z" fill="#F4FBF3"/>
<path d="M256 460.8V469.333H17.0669V392.533C17.095 383.119 24.7196 375.495 34.1336 375.467H170.667C217.795 375.467 256 413.672 256 460.8Z" fill="#F4FBF3"/>
<path d="M170.667 375.467H145.067C192.195 375.467 230.4 413.672 230.4 460.8V469.333H256V460.8C256 413.672 217.795 375.467 170.667 375.467Z" fill="#F4FBF3"/>
<path d="M494.933 392.533V469.333H256V460.8C256 413.672 294.205 375.467 341.333 375.467H477.867C487.281 375.495 494.905 383.119 494.933 392.533Z" fill="#F4FBF3"/>
<path d="M477.867 375.467H452.267C461.681 375.495 469.305 383.119 469.333 392.533V469.333H494.933V392.533C494.905 383.119 487.281 375.495 477.867 375.467Z" fill="#F4FBF3"/>
<path d="M460.8 213.333C460.866 276.845 431.376 336.771 381.013 375.467H341.333C294.205 375.467 256 413.672 256 460.8C256 413.672 217.795 375.467 170.667 375.467H130.987C54.9586 316.876 29.8226 213.342 70.5208 126.412C111.219 39.4824 206.831 -7.51976 300.521 13.3463C394.211 34.2124 460.84 117.348 460.8 213.333Z" fill="#F4FBF3"/>
<path d="M256 8.53321C251.734 8.53321 247.467 8.71241 243.2 8.96841C328.334 14.2649 401.262 71.7943 426.234 153.355C451.206 234.916 422.988 323.414 355.414 375.467H381.014C450.451 321.974 478.134 230.215 449.867 147.246C421.599 64.2766 343.653 8.50521 256 8.53321Z" fill="#F4FBF3"/>
<path d="M34.1332 503.467H59.7332C45.5947 503.467 34.1332 492.005 34.1332 477.867V469.333H42.6665V392.533C42.6947 383.119 50.3192 375.495 59.7332 375.467H34.1332C24.7192 375.495 17.0947 383.119 17.0665 392.533V469.333H8.5332V477.867C8.5332 492.005 19.9947 503.467 34.1332 503.467Z" fill="#F4FBF3"/>
<path d="M76.7998 213.333C76.8394 105.217 160.897 15.7468 268.8 8.96841C264.533 8.71241 260.267 8.53321 256 8.53321C168.347 8.50521 90.4006 64.2766 62.1332 147.246C33.8657 230.215 61.5492 321.974 130.987 375.467H156.587C106.224 336.771 76.7335 276.845 76.7998 213.333Z" fill="#F4FBF3"/>
<path d="M54.6132 143.573L70.7326 149.154C63.6796 169.827 59.9665 191.492 59.7332 213.333H42.6665C42.9001 189.591 46.9334 166.04 54.6132 143.573Z" fill="#F4FBF3"/>
<path d="M503.467 460.8V392.533C503.467 378.395 492.005 366.933 477.867 366.933H403.977C445.91 326.866 469.54 271.331 469.333 213.333C469.202 95.5672 373.766 0.131677 256 0C233.986 0.301728 212.126 3.71765 191.07 10.1461C170.134 16.9886 150.35 26.9511 132.386 39.6971C114.388 52.3891 98.542 67.8862 85.4528 85.5979C72.089 103.118 61.6724 122.7 54.6133 143.573C53.741 145.71 53.8185 148.116 54.8263 150.192C55.8341 152.268 57.6772 153.817 59.8955 154.453C64.3173 155.713 68.977 153.434 70.6987 149.171C77.1909 129.97 86.7811 111.96 99.0891 95.8549C103.014 90.6496 107.264 85.6747 111.65 80.8363C131.743 91.0972 153.173 98.4935 175.317 102.81C166.942 136.17 162.548 170.406 162.227 204.8H51.2C46.4872 204.8 42.6667 208.621 42.6667 213.333C42.4602 271.331 66.0905 326.866 108.023 366.933H34.1333C19.9948 366.933 8.53333 378.395 8.53333 392.533V460.8C3.8205 460.8 0 464.621 0 469.333V477.867C0 496.718 15.282 512 34.1333 512H204.8C214.64 511.969 223.982 507.666 230.4 500.207C236.799 507.691 246.153 512.001 256 512.001C265.847 512.001 275.201 507.691 281.6 500.207C288.018 507.666 297.36 511.969 307.2 512H477.867C496.718 512 512 496.718 512 477.867V469.333C512 464.621 508.18 460.8 503.467 460.8ZM486.4 392.533V418.133H418.133C413.421 418.133 409.6 421.954 409.6 426.667C409.6 431.38 413.421 435.2 418.133 435.2H486.4V460.8H264.533C264.58 418.404 298.937 384.047 341.333 384H477.867C482.58 384 486.4 387.821 486.4 392.533ZM215.526 378.368C207.786 365.421 201.578 351.618 197.026 337.237C236.119 331.321 275.881 331.321 314.974 337.237C310.422 351.618 304.214 365.421 296.474 378.368C278.647 388.152 264.453 403.427 256 421.922C247.547 403.427 233.353 388.152 215.526 378.368ZM111.369 346.01C80.0098 312.063 61.7861 268.045 59.9723 221.867H162.244C162.615 256.26 167.02 290.491 175.369 323.857C153.098 328.19 131.552 335.648 111.369 346.01ZM179.311 221.867H332.689C332.355 255.21 328.059 288.396 319.889 320.725C277.579 314.069 234.489 314.069 192.179 320.725C183.987 288.399 179.667 255.213 179.311 221.867ZM452.028 221.867C450.214 268.045 431.99 312.063 400.632 346.01C380.45 335.636 358.903 328.167 336.632 323.823C344.977 290.468 349.382 256.248 349.756 221.867H452.028ZM341.333 366.933C334.36 366.954 327.411 367.752 320.614 369.314C324.963 359.89 328.711 350.199 331.836 340.301C351.172 344.032 369.956 350.202 387.738 358.665C384.592 361.509 381.338 364.265 377.975 366.933H341.333ZM452.053 204.8H349.773C349.453 170.4 345.059 136.159 336.683 102.793C358.898 98.471 380.392 91.0363 400.529 80.7083C431.822 114.688 450.075 158.649 452.053 204.8ZM331.896 86.3488C325.109 62.638 313.487 40.5888 297.762 21.5893C331.308 28.9048 362.341 44.9073 387.755 67.9936C369.988 76.4545 351.218 82.6224 331.896 86.3488ZM315.025 89.4208C295.491 92.3951 275.759 93.8814 256 93.8667C236.241 93.8814 216.509 92.3951 196.975 89.4208C211.985 43.9296 234.411 17.0667 256 17.0667C277.589 17.0667 300.015 43.9296 315.025 89.4208ZM124.39 68.0875C130.026 62.8484 136.013 58.0015 142.31 53.5808C158.834 41.8723 177.023 32.7106 196.267 26.4021C202.086 24.6187 208 23.1765 213.939 21.9136C198.374 40.8514 186.861 62.7822 180.113 86.3488C160.843 82.6297 142.12 76.4881 124.39 68.0704V68.0875ZM192.094 105.95C213.231 109.299 234.6 110.965 256 110.933C277.401 110.959 298.77 109.287 319.906 105.933C328.086 138.261 332.355 171.454 332.621 204.8H179.379C179.645 171.454 183.914 138.261 192.094 105.933V105.95ZM124.262 358.665C142.044 350.202 160.828 344.032 180.164 340.301C183.289 350.199 187.037 359.89 191.386 369.314C184.589 367.752 177.64 366.954 170.667 366.933H134.025C130.662 364.271 127.408 361.515 124.262 358.665ZM25.6 435.2H93.8667C98.5795 435.2 102.4 431.38 102.4 426.667C102.4 421.954 98.5795 418.133 93.8667 418.133H25.6V392.533C25.6 387.821 29.4205 384 34.1333 384H170.667C213.063 384.047 247.42 418.404 247.467 460.8H25.6V435.2ZM204.8 494.933H34.1333C24.7077 494.933 17.0667 487.292 17.0667 477.867H221.867C221.867 487.292 214.226 494.933 204.8 494.933ZM256 494.933C246.574 494.933 238.933 487.292 238.933 477.867H273.067C273.067 487.292 265.426 494.933 256 494.933ZM477.867 494.933H307.2C297.774 494.933 290.133 487.292 290.133 477.867H494.933C494.933 487.292 487.292 494.933 477.867 494.933Z" fill="#BBEDB4"/>
<path d="M153.6 418.133H136.533C131.821 418.133 128 421.954 128 426.667C128 431.379 131.821 435.2 136.533 435.2H153.6C158.313 435.2 162.133 431.379 162.133 426.667C162.133 421.954 158.313 418.133 153.6 418.133Z" fill="#BBEDB4"/>
<path d="M358.4 435.2H375.467C380.18 435.2 384 431.379 384 426.667C384 421.954 380.18 418.133 375.467 418.133H358.4C353.687 418.133 349.867 421.954 349.867 426.667C349.867 431.379 353.687 435.2 358.4 435.2Z" fill="#BBEDB4"/>
<path d="M54.3998 187.853C49.687 187.876 45.8474 184.075 45.8238 179.362C45.8003 174.649 49.6017 170.81 54.3145 170.786H54.3998C59.1127 170.786 62.9332 174.607 62.9332 179.319C62.9332 184.032 59.1127 187.853 54.3998 187.853Z" fill="#BBEDB4"/>
</g>
<defs>
<clipPath id="clip0_1_524">
<rect width="512" height="512" fill="white"/>
</clipPath>
</defs>
</svg>
