<svg width="512" height="512" viewBox="0 0 512 512" fill="none" xmlns="http://www.w3.org/2000/svg">
<g clip-path="url(#clip0_1_546)">
<path d="M426.667 503.467C445.518 503.467 460.8 488.185 460.8 469.334C460.8 450.482 445.518 435.2 426.667 435.2C407.815 435.2 392.533 450.482 392.533 469.334C392.533 488.185 407.815 503.467 426.667 503.467Z" fill="#F4F7FD"/>
<path d="M426.667 435.2C422.275 435.219 417.928 436.088 413.867 437.76C426.761 442.953 435.206 455.459 435.206 469.359C435.206 483.259 426.761 495.765 413.867 500.958C426.636 506.144 441.272 503.142 450.968 493.348C460.664 483.553 463.519 468.888 458.204 456.172C452.89 443.455 440.449 435.182 426.667 435.2Z" fill="#F4F7FD"/>
<path d="M238.933 503.467C257.784 503.467 273.066 488.185 273.066 469.334C273.066 450.482 257.784 435.2 238.933 435.2C220.082 435.2 204.8 450.482 204.8 469.334C204.8 488.185 220.082 503.467 238.933 503.467Z" fill="#F4F7FD"/>
<path d="M238.933 435.2C234.541 435.219 230.195 436.088 226.133 437.76C239.027 442.953 247.473 455.459 247.473 469.359C247.473 483.259 239.027 495.765 226.133 500.958C238.903 506.144 253.538 503.142 263.235 493.348C272.931 483.553 275.786 468.888 270.471 456.172C265.156 443.455 252.716 435.182 238.933 435.2Z" fill="#F4F7FD"/>
<path d="M503.467 170.667V341.333C503.467 364.897 484.364 384 460.8 384H145.664L111.104 162.133H494.933C499.646 162.133 503.467 165.954 503.467 170.667Z" fill="#F4F7FD"/>
<path d="M494.934 162.133H469.334C474.046 162.133 477.867 165.954 477.867 170.667V341.333C477.867 364.897 458.764 384 435.2 384H460.8C484.364 384 503.467 364.897 503.467 341.333V170.667C503.467 168.403 502.568 166.233 500.968 164.633C499.367 163.032 497.197 162.133 494.934 162.133Z" fill="#F4F7FD"/>
<path d="M334.592 8.70387C327.94 9.50785 322.387 14.1577 320.426 20.5652L276.65 162.133H204.8V8.5332C301.653 8.5332 332.458 8.70387 334.592 8.70387Z" fill="#F4F7FD"/>
<path d="M204.8 8.5332C281.446 8.5332 307.063 8.69534 308.992 8.69534C302.34 9.49932 296.787 14.1491 294.826 20.5567L251.05 162.133H276.65L320.426 20.5652C322.387 14.1577 327.94 9.50785 334.592 8.70387C332.458 8.70387 301.653 8.5332 204.8 8.5332Z" fill="#F4F7FD"/>
<path d="M204.8 8.5332V162.133H170.667V25.5999C170.695 16.1859 178.319 8.56132 187.733 8.5332H204.8Z" fill="#F4F7FD"/>
<path d="M300.39 85.3335H238.95V51.2002H307.217V63.3175L300.39 85.3335Z" fill="#F4F7FD"/>
<path d="M485.973 62.8906L455.253 162.133H312.32L358.144 14.3359L480.427 52.2239C482.582 52.8946 484.381 54.3985 485.422 56.4016C486.464 58.4046 486.662 60.7407 485.973 62.8906Z" fill="#F4F7FD"/>
<path d="M480.427 52.2239L358.144 14.3359L355.9 21.5722L454.827 52.2239C456.983 52.8946 458.781 54.3985 459.823 56.4016C460.864 58.4046 461.063 60.7407 460.374 62.8906L429.653 162.133H455.253L485.974 62.8906C486.663 60.7407 486.464 58.4046 485.423 56.4016C484.381 54.3985 482.583 52.8946 480.427 52.2239Z" fill="#F4F7FD"/>
<path d="M358.144 14.3359L312.32 162.133H276.651L320.427 20.5653C322.387 14.1577 327.94 9.50791 334.592 8.70393C337.024 8.3508 339.504 8.55506 341.846 9.30126L358.144 14.3359Z" fill="#F4F7FD"/>
<path d="M378.034 65.2266L443.228 85.4335L433.125 118.031L367.93 97.8239L378.034 65.2266Z" fill="#F4F7FD"/>
<path d="M226.134 500.906C228.127 501.723 230.192 502.348 232.303 502.775C234.485 503.227 236.706 503.458 238.934 503.466C243.326 503.448 247.672 502.579 251.734 500.906C238.84 495.714 230.394 483.208 230.394 469.307C230.394 455.407 238.84 442.901 251.734 437.708C247.669 436.054 243.322 435.202 238.934 435.2C236.707 435.199 234.485 435.422 232.303 435.865C230.192 436.292 228.127 436.918 226.134 437.734C213.24 442.927 204.794 455.433 204.794 469.333C204.794 483.233 213.24 495.739 226.134 500.932V500.906Z" fill="#F4F7FD"/>
<path d="M336.811 8.63538H338.518C337.949 8.60396 337.379 8.60396 336.811 8.63538Z" fill="#F4F7FD"/>
<path d="M171.264 384L136.704 162.133H111.104L145.664 384H171.264Z" fill="#F4F7FD"/>
<path d="M213.334 8.5332H187.734C178.32 8.56132 170.695 16.1859 170.667 25.5999V162.133H196.267V25.5999C196.295 16.1859 203.92 8.56132 213.334 8.5332Z" fill="#F4F7FD"/>
<path d="M88.8193 74.1338L105.681 71.5055L116.194 138.953L99.3324 141.581L88.8193 74.1338Z" fill="#F4F7FD"/>
<path d="M102.648 115.123C99.5988 115.137 96.7744 113.523 95.2382 110.89C93.702 108.257 93.6874 105.004 95.1998 102.357C96.7123 99.7095 99.522 98.0704 102.571 98.0566H102.648C107.36 98.0566 111.181 101.877 111.181 106.59C111.181 111.303 107.36 115.123 102.648 115.123Z" fill="#CFDEFA"/>
<path d="M71.9445 42.6668H8.53333C3.8205 42.6668 0 46.4873 0 51.2002C0 55.913 3.8205 59.7335 8.53333 59.7335H71.9445C80.3678 59.6947 87.5438 65.8424 88.7979 74.1719C89.4417 78.3304 93.0208 81.3987 97.2288 81.3996C97.6688 81.3988 98.1081 81.3646 98.5429 81.2972C103.199 80.5752 106.388 76.2167 105.668 71.5607C103.157 54.8942 88.7991 42.593 71.9445 42.6668Z" fill="#CFDEFA"/>
<path d="M494.933 153.6H466.85L494.08 65.4933C495.465 61.1822 495.073 56.4964 492.99 52.4754C490.908 48.4545 487.307 45.4306 482.986 44.0747L344.397 1.152C340.77 0.0334965 336.938 -0.258091 333.184 0.298667C331.477 0.187733 329.77 0.119467 327.842 0.110933L304.085 0.0853333C281.6 0.0426667 244.906 0 187.733 0C173.595 0 162.133 11.4615 162.133 25.6V153.6H118.434L116.164 139.008C115.696 135.994 113.656 133.459 110.812 132.358C107.968 131.256 104.753 131.756 102.377 133.668C100.001 135.58 98.8257 138.614 99.2936 141.628L138.428 393.165C142.828 422.333 167.955 443.86 197.453 443.733H205.022C199.374 451.075 196.298 460.071 196.266 469.333C196.266 492.898 215.369 512 238.933 512C262.497 512 281.6 492.898 281.6 469.333C281.568 460.071 278.492 451.075 272.845 443.733H392.755C387.108 451.075 384.031 460.071 384 469.333C384 492.898 403.102 512 426.666 512C450.231 512 469.333 492.898 469.333 469.333C469.302 460.071 466.225 451.075 460.578 443.733H503.466C508.179 443.733 512 439.913 512 435.2C512 430.487 508.179 426.667 503.466 426.667H197.453C177.184 426.729 159.714 412.418 155.784 392.533H460.8C489.065 392.505 511.972 369.599 512 341.333V170.667C512 161.241 504.359 153.6 494.933 153.6ZM264.533 469.333C264.533 483.472 253.072 494.933 238.933 494.933C224.795 494.933 213.333 483.472 213.333 469.333C213.333 455.195 224.795 443.733 238.933 443.733C253.072 443.733 264.533 455.195 264.533 469.333ZM452.266 469.333C452.266 483.472 440.805 494.933 426.666 494.933C412.528 494.933 401.066 483.472 401.066 469.333C401.066 455.195 412.528 443.733 426.666 443.733C440.805 443.733 452.266 455.195 452.266 469.333ZM448.981 153.6H323.925L363.784 25.0283L477.866 60.3648L448.981 153.6ZM347.486 19.9765L306.056 153.6H288.239L328.601 23.0997C329.269 20.9199 330.781 19.0977 332.8 18.0395C334.814 16.9636 337.179 16.7512 339.353 17.4507L347.486 19.9765ZM294.101 76.8H247.466V59.7333H298.666V62.0288L294.101 76.8ZM312.67 17.1691C312.567 17.4677 312.397 17.7408 312.303 18.0224L304.682 42.6667H238.933C234.22 42.6667 230.4 46.4872 230.4 51.2V85.3333C230.4 90.0462 234.22 93.8667 238.933 93.8667H288.853L270.378 153.6H213.333V17.0667C262.758 17.0667 294.238 17.1264 312.67 17.1691ZM179.2 25.6C179.2 20.8872 183.02 17.0667 187.733 17.0667H196.266V153.6H179.2V25.6ZM494.933 341.333C494.933 360.185 479.651 375.467 460.8 375.467H152.943L121.088 170.667H494.933V341.333Z" fill="#CFDEFA"/>
<path d="M359.868 95.2919C358.479 99.7899 360.995 104.563 365.491 105.959L430.711 126.166C431.541 126.421 432.404 126.551 433.271 126.55C437.001 126.553 440.302 124.134 441.421 120.576L451.516 87.9789C452.91 83.4782 450.392 78.6993 445.892 77.3036L380.638 57.0626C376.137 55.6685 371.358 58.1859 369.963 62.686L359.868 95.2919ZM383.761 75.8871L432.64 91.0338L427.588 107.341L378.692 92.1602L383.761 75.8871Z" fill="#CFDEFA"/>
<path d="M409.6 221.867V196.267C409.6 191.554 405.78 187.733 401.067 187.733C396.354 187.733 392.533 191.554 392.533 196.267V221.867H324.267V196.267C324.267 191.554 320.446 187.733 315.733 187.733C311.021 187.733 307.2 191.554 307.2 196.267V221.867H238.933V196.267C238.933 191.554 235.113 187.733 230.4 187.733C225.687 187.733 221.867 191.554 221.867 196.267V221.867H162.133C157.421 221.867 153.6 225.687 153.6 230.4C153.6 235.113 157.421 238.933 162.133 238.933H221.867V307.2H179.2C174.487 307.2 170.667 311.021 170.667 315.733C170.667 320.446 174.487 324.267 179.2 324.267H221.867V349.867C221.867 354.58 225.687 358.4 230.4 358.4C235.113 358.4 238.933 354.58 238.933 349.867V324.267H307.2V349.867C307.2 354.58 311.021 358.4 315.733 358.4C320.446 358.4 324.267 354.58 324.267 349.867V324.267H392.533V349.867C392.533 354.58 396.354 358.4 401.067 358.4C405.78 358.4 409.6 354.58 409.6 349.867V324.267H460.8C465.513 324.267 469.333 320.446 469.333 315.733C469.333 311.021 465.513 307.2 460.8 307.2H409.6V238.933H460.8C465.513 238.933 469.333 235.113 469.333 230.4C469.333 225.687 465.513 221.867 460.8 221.867H409.6ZM238.933 307.2V238.933H307.2V307.2H238.933ZM392.533 307.2H324.267V238.933H392.533V307.2Z" fill="#CFDEFA"/>
</g>
<defs>
<clipPath id="clip0_1_546">
<rect width="512" height="512" fill="white"/>
</clipPath>
</defs>
</svg>
