<svg width="512" height="512" viewBox="0 0 512 512" fill="none" xmlns="http://www.w3.org/2000/svg">
<g clip-path="url(#clip0_1_207)">
<path d="M384 204.885C383.953 223.703 368.685 238.933 349.867 238.933L337.323 276.65C334.016 286.693 328.833 296.017 322.048 304.128C315.943 311.092 309.008 317.282 301.397 322.56C288.353 332.998 272.607 339.509 256 341.333C242.893 340.252 230.286 335.815 219.392 328.448C216.405 326.57 213.419 324.608 210.603 322.56C202.992 317.282 196.057 311.092 189.952 304.128C183.168 296.017 177.984 286.693 174.677 276.65L162.133 238.933C143.329 238.933 128.085 223.689 128.085 204.885C128.085 186.081 143.329 170.837 162.133 170.837V136.533C162.133 136.533 196.267 128 196.267 93.8662C196.267 93.8662 213.333 136.533 307.2 136.533C332.8 136.533 349.867 170.837 349.867 170.837C368.685 170.837 383.953 186.067 384 204.885Z" fill="#FCECEC"/>
<path d="M281.6 136.533C307.2 136.533 324.267 170.837 324.267 170.837C343.071 170.837 358.315 186.081 358.315 204.885C358.315 223.689 343.071 238.933 324.267 238.933L311.723 276.651C308.416 286.694 303.233 296.018 296.448 304.128C290.343 311.092 283.408 317.282 275.798 322.56C265.897 329.902 254.851 335.559 243.106 339.302C247.29 340.573 251.629 341.256 256 341.333C272.608 339.51 288.353 332.998 301.398 322.56C309.008 317.282 315.943 311.092 322.048 304.128C328.833 296.018 334.016 286.694 337.323 276.651L349.867 238.933C368.671 238.933 383.915 223.689 383.915 204.885C383.915 186.081 368.671 170.837 349.867 170.837C349.867 170.837 332.8 136.533 307.2 136.533H281.6Z" fill="#FCECEC"/>
<path d="M93.8665 423.083V503.467H42.6665L82.9438 436.309C85.8897 431.37 89.5731 426.909 93.8665 423.083Z" fill="#FCECEC"/>
<path d="M469.333 503.467H418.133V423.083C422.427 426.909 426.11 431.37 429.056 436.309L469.333 503.467Z" fill="#FCECEC"/>
<path d="M418.133 170.666V298.666C418.194 315.042 411.457 330.709 399.531 341.93C397.708 342.112 395.923 342.573 394.24 343.296L316.331 377.344C300.571 363.885 294.648 342.155 301.397 322.56C309.008 317.282 315.943 311.092 322.048 304.128C328.832 296.018 334.016 286.694 337.323 276.65L349.867 238.933C368.671 238.933 383.915 223.689 383.915 204.885C383.915 186.081 368.671 170.837 349.867 170.837C349.867 170.837 332.8 136.533 307.2 136.533C213.333 136.533 196.267 93.8665 196.267 93.8665C196.267 128 162.133 136.533 162.133 136.533V170.837C143.329 170.837 128.085 186.081 128.085 204.885C128.085 223.689 143.329 238.933 162.133 238.933L174.677 276.65C177.984 286.694 183.168 296.018 189.952 304.128C196.057 311.092 202.992 317.282 210.603 322.56C217.352 342.155 211.429 363.885 195.669 377.344L117.76 343.296C116.077 342.573 114.292 342.112 112.469 341.93C100.542 330.709 93.806 315.042 93.8666 298.666V174.933C93.8666 85.6744 164.181 9.89844 253.44 8.53311C296.868 7.89602 338.74 24.6904 369.691 55.1604C400.642 85.6304 418.09 127.234 418.133 170.666Z" fill="#FCECEC"/>
<path d="M370.603 56.0638C339.631 24.9559 297.331 7.79554 253.44 8.53308C250.402 8.53308 247.467 8.92562 244.455 9.13895C328.196 16.5108 392.451 86.6014 392.534 170.666V298.666C392.594 315.042 385.858 330.709 373.931 341.93C372.108 342.112 370.324 342.573 368.64 343.296L309.112 369.314C311.295 372.183 313.71 374.868 316.331 377.344L394.24 343.296C395.924 342.573 397.708 342.112 399.531 341.93C411.458 330.709 418.194 315.042 418.134 298.666V170.666C418.183 127.66 401.075 86.411 370.603 56.0638Z" fill="#FCECEC"/>
<path d="M230.4 398.08V503.466H93.8668V358.912C93.8502 354.114 95.8617 349.533 99.405 346.299C102.948 343.064 107.693 341.478 112.469 341.93C114.292 342.112 116.077 342.573 117.76 343.296L195.669 377.344L225.28 390.314C228.361 391.676 230.363 394.712 230.4 398.08Z" fill="#FCECEC"/>
<path d="M418.133 358.912V503.466H281.6V398.08C281.637 394.712 283.639 391.676 286.72 390.314L316.331 377.344L394.24 343.296C395.924 342.573 397.708 342.112 399.531 341.93C404.307 341.478 409.052 343.064 412.595 346.299C416.139 349.533 418.15 354.114 418.133 358.912Z" fill="#FCECEC"/>
<path d="M316.331 377.344L286.72 390.314C283.639 391.675 281.637 394.711 281.6 398.08V401.066C281.572 391.652 273.947 384.028 264.533 384H247.467C238.053 384.028 230.428 391.652 230.4 401.066V398.08C230.363 394.711 228.361 391.675 225.28 390.314L195.669 377.344C211.429 363.884 217.353 342.155 210.603 322.56C213.419 324.608 216.405 326.57 219.392 328.448C230.286 335.815 242.893 340.252 256 341.333C272.607 339.509 288.353 332.998 301.397 322.56C294.648 342.155 300.571 363.884 316.331 377.344Z" fill="#FCECEC"/>
<path d="M281.6 401.067V503.467H230.4V401.067C230.428 391.653 238.053 384.028 247.467 384H264.533C273.947 384.028 281.572 391.653 281.6 401.067Z" fill="#FCECEC"/>
<path d="M264.534 384H247.467C246.024 384.016 244.589 384.223 243.2 384.614C250.709 386.553 255.967 393.311 256 401.067V503.467H281.6V401.067C281.572 391.653 273.948 384.028 264.534 384Z" fill="#FCECEC"/>
<path d="M384 426.667L315.733 460.8V426.667L384 392.533V426.667Z" fill="#FCECEC"/>
<path d="M108.544 436.309C111.49 431.37 115.173 426.909 119.467 423.083V358.912C119.45 354.114 121.461 349.533 125.005 346.299C128.548 343.064 133.293 341.478 138.069 341.931C126.142 330.709 119.406 315.042 119.467 298.667V174.933C118.802 88.876 184.33 16.731 270.054 9.13917C264.53 8.65772 258.985 8.45551 253.44 8.5333C250.402 8.5333 247.467 8.92584 244.454 9.13917C158.73 16.731 93.202 88.876 93.8665 174.933V298.667C93.8058 315.042 100.542 330.709 112.469 341.931C107.693 341.478 102.948 343.064 99.4047 346.299C95.8614 349.533 93.8499 354.114 93.8665 358.912V423.083C89.5731 426.909 85.8897 431.37 82.9438 436.309L42.6665 503.467H68.2665L108.544 436.309Z" fill="#FCECEC"/>
<path d="M99.7548 105.182L115.448 111.897C106.866 131.806 102.427 153.254 102.4 174.933H85.3335C85.3575 150.945 90.2643 127.213 99.7548 105.182Z" fill="#FCECEC"/>
<path d="M273.067 290.133C277.779 290.133 281.6 286.313 281.6 281.6C281.6 276.887 277.779 273.066 273.067 273.066H238.933C234.22 273.066 230.4 276.887 230.4 281.6C230.4 286.313 234.22 290.133 238.933 290.133H273.067Z" fill="#F6CACA"/>
<path d="M273.067 307.2C273.067 302.487 269.246 298.667 264.534 298.667H247.467C242.754 298.667 238.934 302.487 238.934 307.2C238.934 311.913 242.754 315.733 247.467 315.733H264.534C269.246 315.733 273.067 311.913 273.067 307.2Z" fill="#F6CACA"/>
<path d="M221.867 196.267H204.8C200.087 196.267 196.267 200.087 196.267 204.8C196.267 209.513 200.087 213.333 204.8 213.333C204.8 218.046 208.62 221.867 213.333 221.867C218.046 221.867 221.867 218.046 221.867 213.333C226.579 213.333 230.4 209.513 230.4 204.8C230.4 200.087 226.579 196.267 221.867 196.267Z" fill="#F6CACA"/>
<path d="M307.2 196.267H290.133C285.421 196.267 281.6 200.087 281.6 204.8C281.6 209.513 285.421 213.333 290.133 213.333C290.133 218.046 293.954 221.867 298.667 221.867C303.38 221.867 307.2 218.046 307.2 213.333C311.913 213.333 315.733 209.513 315.733 204.8C315.733 200.087 311.913 196.267 307.2 196.267Z" fill="#F6CACA"/>
<path d="M247.467 256H264.534C269.246 256 273.067 252.179 273.067 247.466C273.067 242.754 269.246 238.933 264.534 238.933H247.467C242.754 238.933 238.934 242.754 238.934 247.466C238.934 252.179 242.754 256 247.467 256Z" fill="#F6CACA"/>
<path d="M230.4 187.733C235.113 187.733 238.933 183.913 238.933 179.2C238.933 174.487 235.113 170.667 230.4 170.667H196.267C191.554 170.667 187.733 174.487 187.733 179.2C187.733 183.913 191.554 187.733 196.267 187.733H230.4Z" fill="#F6CACA"/>
<path d="M281.6 187.733H315.734C320.446 187.733 324.267 183.913 324.267 179.2C324.267 174.487 320.446 170.667 315.734 170.667H281.6C276.887 170.667 273.067 174.487 273.067 179.2C273.067 183.913 276.887 187.733 281.6 187.733Z" fill="#F6CACA"/>
<path d="M42.6667 512H469.333C472.406 511.997 475.239 510.344 476.753 507.67C478.266 504.996 478.226 501.716 476.646 499.08L436.361 431.897C433.63 427.448 430.376 423.343 426.667 419.669V358.895C426.678 350.252 422.318 342.189 415.078 337.468C414.959 337.399 414.831 337.365 414.712 337.297C422.556 325.947 426.729 312.463 426.667 298.666V170.666C426.624 124.95 408.26 81.1576 375.683 49.0838C343.105 17.01 299.032 -0.669299 253.321 -0.000232743L253.483 11.3662L253.312 -0.000232743C236.867 0.460558 220.563 3.18263 204.86 8.08937C189.252 13.246 174.456 20.5926 160.913 29.9091C133.913 48.8127 112.731 74.8834 99.7547 105.182C98.7833 107.296 98.7427 109.721 99.6428 111.867C100.543 114.013 102.301 115.683 104.491 116.471C108.776 118.017 113.533 116.031 115.448 111.897C127.165 84.5434 146.29 61.0059 170.667 43.9379C182.834 35.5671 196.124 28.9594 210.142 24.3112C224.221 19.9368 238.831 17.4995 253.568 17.0664C294.711 16.4613 334.381 32.3711 363.704 61.2375C393.028 90.104 409.559 129.519 409.6 170.666V298.666C409.66 311.925 404.487 324.672 395.204 334.14C393.702 334.436 392.23 334.873 390.81 335.445L318.396 367.121C308.451 356.593 304.839 341.579 308.907 327.68C316.086 322.418 322.668 316.386 328.533 309.692C336.012 300.759 341.72 290.484 345.353 279.415L356.147 247.04C377.254 243.929 392.801 225.678 392.516 204.345C392.231 183.012 376.203 165.183 355.021 162.637C348.937 152.345 331.827 128 307.2 128C221.423 128 204.305 90.9566 204.194 90.692C202.678 86.8869 198.673 84.6955 194.651 85.4711C190.629 86.2467 187.726 89.7705 187.733 93.8664C187.165 110.199 175.9 124.202 160.068 128.256C156.268 129.204 153.601 132.617 153.6 136.533V163.149C133.328 167.255 118.939 185.336 119.488 206.013C120.037 226.689 135.366 243.981 155.827 247.006L166.622 279.381C170.262 290.452 175.979 300.727 183.467 309.657C189.331 316.364 195.912 322.408 203.093 327.68C207.172 341.591 203.556 356.621 193.596 367.155L121.173 335.445C119.753 334.873 118.281 334.436 116.779 334.14C107.503 324.669 102.336 311.923 102.4 298.666V174.933C102.4 170.22 98.5796 166.4 93.8667 166.4C89.1539 166.4 85.3334 170.22 85.3334 174.933V298.666C85.2707 312.459 89.4405 325.94 97.2801 337.288C97.1606 337.365 97.0326 337.399 96.9131 337.468C89.6769 342.191 85.3198 350.253 85.3334 358.895V419.669C81.6216 423.354 78.3617 427.467 75.6225 431.923L35.3537 499.08C33.7745 501.716 33.7339 504.996 35.2473 507.67C36.7607 510.344 39.5945 511.997 42.6667 512ZM238.933 401.066C238.933 396.354 242.754 392.533 247.467 392.533H264.533C269.246 392.533 273.067 396.354 273.067 401.066V494.933H238.933V401.066ZM454.264 494.933H426.667V448.904L454.264 494.933ZM397.653 351.078C400.291 349.927 403.331 350.183 405.739 351.758C408.147 353.334 409.599 356.017 409.6 358.895V494.933H290.133V398.114L397.653 351.078ZM196.489 298.666C190.408 291.384 185.774 283.008 182.835 273.988L170.249 236.245C169.088 232.75 165.816 230.393 162.133 230.4C149.668 230.504 138.962 221.563 136.844 209.278C134.726 196.993 141.819 184.982 153.6 180.906V187.733C153.6 192.446 157.421 196.266 162.133 196.266C166.846 196.266 170.667 192.446 170.667 187.733V142.66C184.165 137.343 195.043 126.949 200.969 113.706C215.8 127.59 246.528 145.066 307.2 145.066C322.714 145.066 336.29 163.84 341.333 172.936V187.733C341.333 192.446 345.154 196.266 349.867 196.266C354.58 196.266 358.4 192.446 358.4 187.733V180.906C370.181 184.982 377.275 196.993 375.157 209.278C373.038 221.563 362.332 230.504 349.867 230.4C346.195 230.403 342.937 232.753 341.777 236.237L329.19 273.988C326.243 283.01 321.6 291.386 315.512 298.666C303.787 312.576 274.773 332.8 256 332.8C237.227 332.8 208.213 312.576 196.489 298.666ZM221.722 339.541C232.174 345.637 243.92 349.175 256 349.866C268.081 349.172 279.827 345.631 290.278 339.533C290.387 352.073 294.581 364.236 302.225 374.178L283.264 382.472C283 382.592 282.795 382.797 282.539 382.925C277.758 378.157 271.285 375.476 264.533 375.466H247.467C240.701 375.463 234.212 378.149 229.427 382.933C229.163 382.805 228.966 382.592 228.702 382.481L209.741 374.186C217.397 364.246 221.603 352.088 221.722 339.541ZM221.867 398.114V494.933H102.4V358.895C102.402 356.017 103.853 353.334 106.261 351.758C108.669 350.183 111.709 349.927 114.347 351.078L221.867 398.114ZM85.3334 448.904V494.933H57.7366L85.3334 448.904Z" fill="#F6CACA"/>
<path d="M97.5532 149.538C92.8403 149.561 89.0007 145.76 88.9772 141.047C88.9536 136.334 92.755 132.495 97.4678 132.471H97.5532C102.266 132.471 106.086 136.292 106.086 141.005C106.086 145.717 102.266 149.538 97.5532 149.538Z" fill="#F6CACA"/>
<path d="M311.254 468.062C313.767 469.614 316.905 469.756 319.548 468.437L387.815 434.304C390.708 432.858 392.535 429.901 392.534 426.667V392.533C392.55 389.568 391.025 386.807 388.507 385.24C385.989 383.674 382.839 383.528 380.186 384.853L311.919 418.986C309.012 420.439 307.183 423.417 307.2 426.667V460.8C307.201 463.76 308.735 466.508 311.254 468.062ZM324.267 431.94L375.467 406.34V421.393L324.267 446.993V431.94Z" fill="#F6CACA"/>
</g>
<defs>
<clipPath id="clip0_1_207">
<rect width="512" height="512" fill="white"/>
</clipPath>
</defs>
</svg>
